# xmcd
#
# Track frame offsets: 
#        150
#        16490
#        35562
#        55300
#        76177
#        93392
#        112577
#        132552
#        151685
#        165015
#        183252
#        201870
#        218482
#        232685
#        250282
#        267362
#        282932
#        300662
#        311977
#        331625
#
# Disc length: 4680 seconds
#
# Revision: 0
# Processed by: cddbd v1.5.2PL0 Copyright (c) Steve Scherf et al.
# Submitted via: ExactAudioCopy v1.0b6
#
DISCID=fa124614
DTITLE=Djavan - Novo Millennium
DYEAR=2014
DGENRE=MPB
TTITLE0=Espanhola
TTITLE1=Nascente
TTITLE2=O Trem Azul
TTITLE3=Amor de Índio
TTITLE4=Caramelo
TTITLE5=No Trem do Amor
TTITLE6=Alice
TTITLE7=Andarilho de Luz
TTITLE8=Princesa
TTITLE9=Vento de Maio
TTITLE10=Cais
TTITLE11=Sol de Primavera
TTITLE12=Fascinação
TTITLE13=Paisagem na Janela
TTITLE14=Solidão
TTITLE15=Anjo Bom
TTITLE16=Tão Seu
TTITLE17=Foi Quando Eu Vi Aquela Lua Passar
TTITLE18=Emmanuel
TTITLE19=São Tomé
EXTD=
EXTT0=
EXTT1=
EXTT2=
EXTT3=
EXTT4=
EXTT5=
EXTT6=
EXTT7=
EXTT8=
EXTT9=
EXTT10=
EXTT11=
EXTT12=
EXTT13=
EXTT14=
EXTT15=
EXTT16=
EXTT17=
EXTT18=
EXTT19=
PLAYORDER=
